<svg width="96" height="96" viewBox="0 0 96 96" fill="none" xmlns="http://www.w3.org/2000/svg" role="img" aria-label="Uzair Waseem UW monogram">
  <rect x="7" y="7" width="82" height="82" rx="20" fill="#050B12"/>
  <rect x="8" y="8" width="80" height="80" rx="19" stroke="url(#frame)" stroke-width="2"/>
  <path d="M18 34V21C18 19.3431 19.3431 18 21 18H34M62 18H75C76.6569 18 78 19.3431 78 21V34M78 62V75C78 76.6569 76.6569 78 75 78H62M34 78H21C19.3431 78 18 76.6569 18 75V62" stroke="#2DD4BF" stroke-width="3" stroke-linecap="round" opacity="0.72"/>
  <path d="M27 29V49C27 59.4934 32.3726 66 41 66C49.6274 66 55 59.4934 55 49V29" stroke="#F8FAFC" stroke-width="7" stroke-linecap="round"/>
  <path d="M49 29L56.5 66L64 45L71.5 66L79 29" stroke="url(#mark)" stroke-width="6" stroke-linecap="round" stroke-linejoin="round"/>
  <path d="M27 73H69" stroke="url(#signal)" stroke-width="3" stroke-linecap="round"/>
  <rect x="72" y="17" width="8" height="8" rx="2" fill="#FBBF24"/>
  <defs>
    <linearGradient id="frame" x1="12" y1="10" x2="86" y2="88" gradientUnits="userSpaceOnUse">
      <stop stop-color="#2DD4BF"/>
      <stop offset="0.55" stop-color="#38BDF8"/>
      <stop offset="1" stop-color="#FBBF24"/>
    </linearGradient>
    <linearGradient id="mark" x1="49" y1="29" x2="79" y2="66" gradientUnits="userSpaceOnUse">
      <stop stop-color="#38BDF8"/>
      <stop offset="0.5" stop-color="#2DD4BF"/>
      <stop offset="1" stop-color="#86EFAC"/>
    </linearGradient>
    <linearGradient id="signal" x1="27" y1="73" x2="69" y2="73" gradientUnits="userSpaceOnUse">
      <stop stop-color="#2DD4BF"/>
      <stop offset="1" stop-color="#FBBF24"/>
    </linearGradient>
  </defs>
</svg>
