<svg width="96" height="96" viewBox="0 0 96 96" fill="none" xmlns="http://www.w3.org/2000/svg" role="img" aria-label="Uzair Waseem logo">
  <rect x="8" y="8" width="80" height="80" rx="18" fill="#071018"/>
  <rect x="8.75" y="8.75" width="78.5" height="78.5" rx="17.25" stroke="url(#border)" stroke-width="1.5"/>
  <path d="M24 30V52.5C24 61.6 29.7 67 38.5 67C47.3 67 53 61.6 53 52.5V30H45.6V52C45.6 56.9 43.1 59.9 38.5 59.9C33.9 59.9 31.4 56.9 31.4 52V30H24Z" fill="#F8FAFC"/>
  <path d="M55 30L59.4 67H66.4L72 46L77.6 67H84.4L89 30H82L80.1 52L74.6 30H69.6L64 52L62.1 30H55Z" fill="#BFF7EE"/>
  <path d="M22 74H74" stroke="url(#accent)" stroke-width="3" stroke-linecap="round"/>
  <circle cx="72" cy="24" r="5" fill="#2DD4BF"/>
  <circle cx="76" cy="70" r="3" fill="#FBBF24"/>
  <path d="M72 24L58 38M76 70L64 58" stroke="#2DD4BF" stroke-width="1.5" stroke-linecap="round" opacity="0.72"/>
  <defs>
    <linearGradient id="border" x1="14" y1="13" x2="84" y2="86" gradientUnits="userSpaceOnUse">
      <stop stop-color="#2DD4BF"/>
      <stop offset="0.52" stop-color="#38BDF8"/>
      <stop offset="1" stop-color="#FBBF24"/>
    </linearGradient>
    <linearGradient id="accent" x1="22" y1="74" x2="74" y2="74" gradientUnits="userSpaceOnUse">
      <stop stop-color="#2DD4BF"/>
      <stop offset="1" stop-color="#FBBF24"/>
    </linearGradient>
  </defs>
</svg>
